<svg width="48" height="48" viewBox="0 0 48 48" fill="none" xmlns="http://www.w3.org/2000/svg">
<path d="M33.7099 32.2894L29.9999 28.6094C31.44 26.8138 32.1374 24.5347 31.9487 22.2407C31.76 19.9467 30.6996 17.8122 28.9854 16.2761C27.2713 14.7399 25.0337 13.9189 22.7328 13.9819C20.4319 14.0448 18.2426 14.987 16.615 16.6146C14.9875 18.2421 14.0453 20.4315 13.9824 22.7323C13.9194 25.0332 14.7404 27.2708 16.2765 28.9849C17.8127 30.6991 19.9472 31.7595 22.2412 31.9482C24.5352 32.1369 26.8143 31.4395 28.6099 29.9994L32.2899 33.6794C32.3829 33.7731 32.4935 33.8475 32.6153 33.8983C32.7372 33.9491 32.8679 33.9752 32.9999 33.9752C33.1319 33.9752 33.2626 33.9491 33.3845 33.8983C33.5063 33.8475 33.6169 33.7731 33.7099 33.6794C33.8901 33.493 33.9909 33.2438 33.9909 32.9844C33.9909 32.7251 33.8901 32.4759 33.7099 32.2894ZM22.9999 29.9994C21.6154 29.9994 20.2621 29.5889 19.1109 28.8197C17.9598 28.0505 17.0626 26.9573 16.5327 25.6782C16.0029 24.3991 15.8643 22.9917 16.1344 21.6338C16.4045 20.2759 17.0712 19.0286 18.0502 18.0497C19.0291 17.0707 20.2764 16.404 21.6343 16.1339C22.9921 15.8638 24.3996 16.0024 25.6787 16.5323C26.9578 17.0621 28.051 17.9593 28.8202 19.1104C29.5894 20.2616 29.9999 21.6149 29.9999 22.9994C29.9999 24.8559 29.2624 26.6364 27.9497 27.9492C26.6369 29.2619 24.8564 29.9994 22.9999 29.9994Z" fill="white"/>
</svg>
