<svg width="48" height="48" viewBox="0 0 48 48" fill="none" xmlns="http://www.w3.org/2000/svg">
<path d="M27.71 24.7096C28.6904 23.9383 29.406 22.8806 29.7572 21.6836C30.1085 20.4866 30.0779 19.2099 29.6698 18.0311C29.2617 16.8523 28.4963 15.83 27.4801 15.1065C26.4639 14.383 25.2474 13.9941 24 13.9941C22.7525 13.9941 21.5361 14.383 20.5199 15.1065C19.5037 15.83 18.7383 16.8523 18.3302 18.0311C17.9221 19.2099 17.8915 20.4866 18.2428 21.6836C18.594 22.8806 19.3096 23.9383 20.29 24.7096C18.6101 25.3827 17.1443 26.499 16.0489 27.9396C14.9535 29.3801 14.2696 31.0909 14.07 32.8896C14.0556 33.021 14.0671 33.1538 14.104 33.2807C14.1409 33.4075 14.2025 33.5259 14.2851 33.629C14.452 33.8371 14.6948 33.9705 14.96 33.9996C15.2252 34.0288 15.4912 33.9514 15.6993 33.7845C15.9075 33.6176 16.0408 33.3749 16.07 33.1096C16.2896 31.1548 17.2217 29.3494 18.6882 28.0384C20.1547 26.7274 22.0529 26.0027 24.02 26.0027C25.9871 26.0027 27.8852 26.7274 29.3518 28.0384C30.8183 29.3494 31.7504 31.1548 31.97 33.1096C31.9972 33.3554 32.1144 33.5823 32.2991 33.7467C32.4838 33.911 32.7228 34.0011 32.97 33.9996H33.08C33.3421 33.9695 33.5817 33.8369 33.7466 33.6309C33.9114 33.4248 33.9881 33.162 33.96 32.8996C33.7595 31.0958 33.0719 29.3806 31.9708 27.9378C30.8698 26.4951 29.3969 25.3791 27.71 24.7096ZM24 23.9996C23.2089 23.9996 22.4355 23.765 21.7777 23.3255C21.1199 22.886 20.6072 22.2613 20.3045 21.5304C20.0017 20.7995 19.9225 19.9952 20.0769 19.2193C20.2312 18.4434 20.6122 17.7306 21.1716 17.1712C21.731 16.6118 22.4437 16.2308 23.2196 16.0765C23.9956 15.9222 24.7998 16.0014 25.5307 16.3041C26.2616 16.6069 26.8863 17.1196 27.3259 17.7774C27.7654 18.4352 28 19.2085 28 19.9996C28 21.0605 27.5786 22.0779 26.8284 22.8281C26.0783 23.5782 25.0609 23.9996 24 23.9996Z" fill="white"/>
</svg>
