<svg width="48" height="48" viewBox="0 0 48 48" fill="none" xmlns="http://www.w3.org/2000/svg">
<path d="M27.71 24.7101C28.6904 23.9388 29.406 22.881 29.7572 21.6841C30.1085 20.4871 30.0779 19.2104 29.6698 18.0316C29.2617 16.8528 28.4963 15.8305 27.4801 15.107C26.4639 14.3834 25.2474 13.9946 24 13.9946C22.7525 13.9946 21.5361 14.3834 20.5199 15.107C19.5037 15.8305 18.7383 16.8528 18.3302 18.0316C17.9221 19.2104 17.8915 20.4871 18.2428 21.6841C18.594 22.881 19.3096 23.9388 20.29 24.7101C18.6101 25.3832 17.1443 26.4995 16.0489 27.94C14.9535 29.3806 14.2696 31.0914 14.07 32.8901C14.0556 33.0214 14.0671 33.1543 14.104 33.2812C14.1409 33.408 14.2025 33.5264 14.2851 33.6294C14.452 33.8376 14.6948 33.971 14.96 34.0001C15.2252 34.0293 15.4912 33.9519 15.6993 33.785C15.9075 33.6181 16.0408 33.3753 16.07 33.1101C16.2896 31.1553 17.2217 29.3499 18.6882 28.0389C20.1547 26.7279 22.0529 26.0032 24.02 26.0032C25.9871 26.0032 27.8852 26.7279 29.3518 28.0389C30.8183 29.3499 31.7504 31.1553 31.97 33.1101C31.9972 33.3558 32.1144 33.5828 32.2991 33.7471C32.4838 33.9115 32.7228 34.0016 32.97 34.0001H33.08C33.3421 33.97 33.5817 33.8374 33.7466 33.6314C33.9114 33.4253 33.9881 33.1625 33.96 32.9001C33.7595 31.0963 33.0719 29.3811 31.9708 27.9383C30.8698 26.4955 29.3969 25.3796 27.71 24.7101ZM24 24.0001C23.2089 24.0001 22.4355 23.7655 21.7777 23.326C21.1199 22.8865 20.6072 22.2618 20.3045 21.5309C20.0017 20.8 19.9225 19.9957 20.0769 19.2198C20.2312 18.4438 20.6122 17.7311 21.1716 17.1717C21.731 16.6123 22.4437 16.2313 23.2196 16.077C23.9956 15.9226 24.7998 16.0019 25.5307 16.3046C26.2616 16.6074 26.8863 17.12 27.3259 17.7778C27.7654 18.4356 28 19.209 28 20.0001C28 21.061 27.5786 22.0784 26.8284 22.8286C26.0783 23.5787 25.0609 24.0001 24 24.0001Z" fill="#03131F"/>
</svg>
