<svg width="48" height="48" viewBox="0 0 48 48" fill="none" xmlns="http://www.w3.org/2000/svg">
<path d="M33.7099 32.2899L29.9999 28.6099C31.44 26.8143 32.1374 24.5352 31.9487 22.2412C31.76 19.9472 30.6996 17.8127 28.9854 16.2765C27.2713 14.7404 25.0337 13.9194 22.7328 13.9824C20.4319 14.0453 18.2426 14.9875 16.615 16.615C14.9875 18.2426 14.0453 20.4319 13.9824 22.7328C13.9194 25.0337 14.7404 27.2713 16.2765 28.9854C17.8127 30.6996 19.9472 31.76 22.2412 31.9487C24.5352 32.1374 26.8143 31.44 28.6099 29.9999L32.2899 33.6799C32.3829 33.7736 32.4935 33.848 32.6153 33.8988C32.7372 33.9496 32.8679 33.9757 32.9999 33.9757C33.1319 33.9757 33.2626 33.9496 33.3845 33.8988C33.5063 33.848 33.6169 33.7736 33.7099 33.6799C33.8901 33.4934 33.9909 33.2442 33.9909 32.9849C33.9909 32.7256 33.8901 32.4764 33.7099 32.2899ZM22.9999 29.9999C21.6154 29.9999 20.2621 29.5894 19.1109 28.8202C17.9598 28.051 17.0626 26.9578 16.5327 25.6787C16.0029 24.3996 15.8643 22.9921 16.1344 21.6343C16.4045 20.2764 17.0712 19.0291 18.0502 18.0502C19.0291 17.0712 20.2764 16.4045 21.6343 16.1344C22.9921 15.8643 24.3996 16.0029 25.6787 16.5327C26.9578 17.0626 28.051 17.9598 28.8202 19.1109C29.5894 20.2621 29.9999 21.6154 29.9999 22.9999C29.9999 24.8564 29.2624 26.6369 27.9497 27.9497C26.6369 29.2624 24.8564 29.9999 22.9999 29.9999Z" fill="#03131F"/>
</svg>
