<svg width="24" height="24" viewBox="0 0 24 24" fill="none" xmlns="http://www.w3.org/2000/svg">
<path d="M11.29 17.71C11.3851 17.801 11.4972 17.8724 11.62 17.92C11.8635 18.02 12.1365 18.02 12.38 17.92C12.5028 17.8724 12.6149 17.801 12.71 17.71L16.71 13.71C16.8032 13.6168 16.8772 13.5061 16.9277 13.3843C16.9781 13.2624 17.0041 13.1319 17.0041 13C17.0041 12.8681 16.9781 12.7376 16.9277 12.6158C16.8772 12.4939 16.8032 12.3832 16.71 12.29C16.6168 12.1968 16.5061 12.1228 16.3843 12.0723C16.2624 12.0219 16.1319 11.9959 16 11.9959C15.8681 11.9959 15.7376 12.0219 15.6158 12.0723C15.4939 12.1228 15.3832 12.1968 15.29 12.29L13 14.59L13 3C13 2.73478 12.8946 2.48043 12.7071 2.29289C12.5196 2.10536 12.2652 2 12 2C11.7348 2 11.4804 2.10536 11.2929 2.29289C11.1054 2.48043 11 2.73478 11 3L11 14.59L8.71 12.29C8.61704 12.1963 8.50644 12.1219 8.38458 12.0711C8.26272 12.0203 8.13201 11.9942 8 11.9942C7.86799 11.9942 7.73728 12.0203 7.61542 12.0711C7.49356 12.1219 7.38296 12.1963 7.29 12.29C7.19627 12.383 7.12188 12.4936 7.07111 12.6154C7.02034 12.7373 6.9942 12.868 6.9942 13C6.9942 13.132 7.02034 13.2627 7.07111 13.3846C7.12188 13.5064 7.19627 13.617 7.29 13.71L11.29 17.71ZM5 22L19 22C19.2652 22 19.5196 21.8946 19.7071 21.7071C19.8946 21.5196 20 21.2652 20 21C20 20.7348 19.8946 20.4804 19.7071 20.2929C19.5196 20.1054 19.2652 20 19 20L5 20C4.73478 20 4.48043 20.1054 4.29289 20.2929C4.10536 20.4804 4 20.7348 4 21C4 21.2652 4.10536 21.5196 4.29289 21.7071C4.48043 21.8946 4.73478 22 5 22Z" fill="black"/>
</svg>
